#tb 0: 1/1000
0,          0,          0,        0,    23374, 0x8725b3b8
0,        122,        122,        0,    13732, 0x3ac8531a
0,        245,        245,        0,      615, 0xd31641b4
0,        367,        367,        0,     6361, 0xf263af54
0,        490,        490,        0,      320, 0xd6f2d6b8
0,        612,        612,        0,     3750, 0xfcf1d501
0,        735,        735,        0,     2541, 0xd9fc04f9
0,        857,        857,        0,      205, 0x4d38a947
0,        980,        980,        0,     2166, 0x2f1e7d74
0,       1102,       1102,        0,     1667, 0x0cd84b61
0,       1224,       1224,        0,    13645, 0x543bd032
0,       1347,       1347,        0,     5953, 0xc3037c73
0,       1469,       1469,        0,    36169, 0xca9f716d
0,       1592,       1592,        0,     3030, 0x9aba5683
